<svg xmlns="http://www.w3.org/2000/svg" viewBox="0 0 64 64">
  <!-- The q from the lockup, with its descender gap: the one mark on the site
       that is ours. Stroked slightly so the stems survive at 16px. -->
  <rect width="64" height="64" rx="12" fill="#0c0a09"/>
  <svg x="12" y="5" width="40" height="54" viewBox="3790 -1170 1020 2000">
    <g transform="scale(1,-1)" fill="#f5f4f2" stroke="#f5f4f2" stroke-width="70" stroke-linejoin="round">
      <path transform="translate(3747.00,0)" d="M895.331787109375 -418V207.997802734375H883.998291015625Q861.6651611328125 156.99908447265625 819.8322448730469 103.16619873046875Q777.9993286132812 49.33331298828125 709.9995422363281 12.666656494140625Q641.999755859375 -24 539.9993896484375 -24Q402.99920654296875 -24 299.33233642578125 48.66656494140625Q195.66546630859375 121.3331298828125 138.16531372070312 252.16644287109375Q80.6651611328125 382.999755859375 80.6651611328125 556Q80.6651611328125 728.000244140625 138.66531372070312 858.0002136230469Q196.66546630859375 988.0001831054688 300.33233642578125 1060.3334045410156Q403.99920654296875 1132.6666259765625 541.332763671875 1132.6666259765625Q644.3331909179688 1132.6666259765625 711.8329467773438 1096.4999694824219Q779.3327026367188 1060.3333129882812 820.6655883789062 1007.3337707519531Q861.9984741210938 954.334228515625 883.998291015625 904.002197265625H899.3319091796875V1118H1024.0009765625V-418ZM554.66650390625 94.002197265625Q663.6661987304688 94.002197265625 739.8325500488281 153.835205078125Q815.9989013671875 213.668212890625 856.33203125 318.3343811035156Q896.6651611328125 423.00054931640625 896.6651611328125 557.3333740234375Q896.6651611328125 691.6661987304688 856.8320617675781 794.8323364257812Q816.9989624023438 897.9984741210938 740.499267578125 956.3314514160156Q663.9995727539062 1014.6644287109375 554.66650390625 1014.6644287109375Q443.66668701171875 1014.6644287109375 366.8336486816406 953.998046875Q290.0006103515625 893.3316650390625 250.33416748046875 789.8321838378906Q210.667724609375 686.3327026367188 210.667724609375 557.3333740234375Q210.667724609375 427.6673583984375 250.66751098632812 322.6678466796875Q290.66729736328125 217.6683349609375 367.33367919921875 155.83526611328125Q444.00006103515625 94.002197265625 554.66650390625 94.002197265625Z"/>
      <rect x="4642.33" y="-790.00" width="128.67" height="234.00"/>
    </g>
  </svg>
</svg>
